<?xml version="1.0" standalone="no"?>
<!DOCTYPE svg PUBLIC "-//W3C//DTD SVG 20010904//EN"
 "http://www.w3.org/TR/2001/REC-SVG-20010904/DTD/svg10.dtd">
<svg version="1.0" xmlns="http://www.w3.org/2000/svg"
 width="512.000000pt" height="512.000000pt" viewBox="0 0 512.000000 512.000000"
 preserveAspectRatio="xMidYMid meet">
<metadata>
Created by potrace 1.11, written by Peter Selinger 2001-2013
</metadata>
<g transform="translate(0.000000,512.000000) scale(0.100000,-0.100000)"
fill="#000000" stroke="none">
<path d="M2590 4981 c-14 -27 -13 -34 3 -19 8 7 14 18 14 25 0 18 -5 16 -17
-6z"/>
<path d="M2555 4980 c3 -5 8 -10 11 -10 2 0 4 5 4 10 0 6 -5 10 -11 10 -5 0
-7 -4 -4 -10z"/>
<path d="M2660 4979 c0 -5 -5 -7 -10 -4 -6 3 -23 -3 -39 -15 -21 -14 -32 -17
-37 -9 -5 9 -11 7 -19 -5 -11 -14 -13 -15 -19 -1 -3 8 -11 15 -17 15 -8 0 -7
-6 2 -17 12 -16 12 -17 -1 -7 -25 17 -68 15 -79 -4 -9 -15 -10 -14 -8 5 0 12
4 20 7 18 3 -2 12 0 19 4 10 6 9 10 -3 14 -8 3 -18 2 -21 -3 -4 -6 -11 -10
-16 -10 -6 0 -8 4 -5 9 4 5 -3 7 -14 4 -24 -6 -27 -21 -4 -19 9 0 18 -5 20
-12 1 -7 0 -8 -3 -2 -2 5 -9 10 -14 10 -6 0 -7 -6 -3 -12 4 -7 4 -10 -1 -6 -4
4 -14 0 -22 -10 -13 -15 -13 -15 -4 5 14 28 -14 41 -29 13 -13 -25 -38 -15
-47 18 l-6 26 -9 -24 c-6 -16 -5 -26 4 -32 9 -6 5 -7 -9 -3 -19 5 -22 3 -16
-12 7 -19 5 -18 -17 10 -11 15 -11 18 0 15 8 -2 15 6 17 17 2 15 1 16 -5 5 -4
-8 -11 -16 -17 -17 -5 -1 -19 -4 -30 -8 -20 -7 -20 -6 -1 9 11 9 15 16 9 16
-6 0 -16 -7 -23 -15 -6 -8 -15 -14 -18 -13 -19 2 -32 -3 -32 -13 0 -8 4 -8 14
0 10 9 15 8 19 -2 8 -20 -31 -14 -47 8 -8 12 -15 14 -20 7 -4 -6 -14 -8 -23
-5 -15 6 -16 5 -3 -9 14 -16 16 -16 28 0 6 8 12 11 12 5 0 -9 -27 -38 -36 -38
-2 0 -9 9 -17 19 -11 15 -16 16 -22 6 -5 -8 -4 -11 2 -7 5 3 10 -1 10 -9 0
-13 -2 -13 -15 0 -13 13 -13 17 -1 33 12 16 12 17 -2 6 -9 -7 -20 -9 -24 -5
-5 4 1 -11 13 -33 l23 -40 -28 30 c-24 27 -26 28 -21 7 4 -12 2 -20 -2 -17 -5
3 -10 0 -12 -7 -2 -6 -14 -12 -26 -13 -11 -1 -19 2 -16 7 5 8 -8 11 -41 9 -17
-2 -17 0 -5 8 8 6 10 11 4 11 -6 0 -17 -7 -24 -15 -15 -18 -34 -20 -24 -2 6 9
5 9 -8 0 -8 -7 -17 -11 -20 -8 -2 3 -5 -2 -5 -10 0 -11 4 -12 13 -4 8 6 14 6
18 0 4 -5 2 -12 -4 -16 -5 -3 -10 -3 -10 1 0 3 -8 0 -17 -7 -10 -8 -14 -9 -10
-2 4 6 3 14 -3 18 -6 4 -8 10 -5 15 3 5 0 12 -6 16 -7 4 -9 3 -6 -3 8 -13 -17
-36 -28 -25 -5 4 -5 1 -1 -5 4 -7 3 -13 -3 -13 -5 0 -11 6 -14 13 -3 6 -4 2
-4 -10 1 -12 4 -20 8 -17 4 2 11 -1 15 -7 4 -8 3 -9 -4 -5 -7 4 -12 2 -12 -3
0 -6 -5 -11 -11 -11 -5 0 -7 5 -4 10 3 6 -2 10 -12 11 -10 0 -13 3 -5 6 6 2
12 9 12 15 0 7 -5 7 -13 -1 -8 -6 -18 -8 -23 -4 -5 4 -3 1 4 -7 16 -18 15 -30
-1 -30 -8 0 -22 -9 -32 -20 -10 -11 -21 -17 -25 -15 -4 3 -11 -2 -14 -11 -3
-8 -10 -12 -16 -9 -5 3 -10 0 -10 -7 0 -9 -3 -9 -10 2 -5 8 -10 11 -10 6 0 -4
-11 -1 -25 8 -18 12 -24 13 -23 4 2 -8 -6 -12 -21 -10 l-25 2 23 -19 c22 -20
21 -42 -2 -40 -8 0 -8 2 1 6 10 4 10 8 2 18 -9 11 -17 11 -35 3 -14 -6 -22
-15 -19 -19 3 -5 0 -9 -6 -9 -6 0 -8 -5 -5 -10 4 -6 12 -7 18 -4 7 4 8 3 4 -1
-10 -12 -38 -15 -31 -4 3 5 0 9 -6 9 -6 0 -8 5 -5 10 3 6 1 10 -4 10 -14 0
-14 -33 0 -47 8 -8 8 -13 0 -18 -6 -3 -10 -3 -9 2 2 4 -5 19 -14 32 l-18 25 4
-32 c3 -17 0 -35 -6 -38 -7 -4 -8 -2 -4 4 5 9 -4 11 -30 7 -29 -3 -35 -2 -26
7 7 7 12 16 12 20 0 4 -8 0 -18 -9 -16 -16 -16 -19 -2 -31 8 -8 10 -11 3 -8
-6 4 -14 -3 -18 -14 -4 -11 -11 -18 -16 -15 -8 6 -13 -8 -10 -27 0 -4 -7 -4
-16 -1 -10 4 -14 2 -10 -4 3 -5 0 -10 -7 -10 -11 0 -12 4 -3 18 6 10 15 15 21
12 5 -3 6 -1 2 5 -3 6 3 13 14 17 11 3 20 11 20 17 0 6 -3 8 -7 5 -3 -4 -12 1
-20 11 -12 15 -13 14 -2 -7 10 -21 9 -23 -5 -18 -10 4 -15 3 -11 -3 3 -6 1
-10 -4 -10 -6 0 -11 -7 -11 -16 0 -10 -5 -14 -16 -10 -10 4 -13 2 -8 -6 5 -8
2 -9 -10 -5 -9 4 -15 3 -12 -1 3 -4 -4 -13 -15 -20 -11 -7 -19 -8 -19 -2 0 5
-4 10 -10 10 -5 0 -9 -6 -7 -12 1 -7 -4 -12 -12 -10 -12 3 -12 1 0 -14 12 -16
12 -17 -4 -11 -11 4 -16 3 -12 -3 10 -16 -33 -70 -50 -64 -8 4 -12 11 -9 16 4
6 9 6 14 -2 5 -8 10 -8 14 -2 3 5 -1 12 -9 16 -8 3 -17 1 -20 -5 -4 -5 -11 -7
-16 -4 -5 3 -6 -1 -3 -9 9 -24 -5 -39 -24 -24 -10 8 -13 9 -9 1 4 -6 2 -15 -4
-18 -5 -4 -8 -13 -5 -20 4 -10 -3 -13 -22 -10 -24 3 -28 -1 -30 -23 -1 -15 -7
-29 -12 -30 -6 -2 -8 -8 -4 -13 3 -5 2 -9 -3 -8 -19 3 -27 -2 -14 -10 8 -6 0
-8 -25 -7 -36 1 -38 -1 -42 -33 -2 -21 0 -31 7 -26 7 4 8 0 4 -10 -5 -13 -7
-14 -14 -3 -8 12 -13 4 -10 -15 0 -4 -2 -6 -6 -6 -19 3 -33 -2 -33 -12 0 -6 7
-8 16 -5 9 3 12 2 9 -4 -4 -6 -14 -9 -23 -8 -12 2 -16 -3 -14 -17 2 -15 0 -17
-6 -6 -11 16 -21 3 -17 -22 3 -15 1 -16 -11 -6 -12 9 -12 15 -2 28 11 14 11
14 -3 4 -9 -7 -20 -9 -24 -5 -5 4 -1 -6 9 -22 10 -16 13 -25 7 -22 -6 4 -12 2
-12 -3 -1 -6 -2 -16 -3 -23 0 -6 -11 -13 -24 -15 -15 -2 -21 1 -17 8 4 6 12 8
19 6 7 -3 11 8 12 27 1 17 -1 23 -3 13 -2 -9 -9 -14 -15 -11 -6 4 -8 2 -4 -4
3 -6 -1 -15 -10 -20 -11 -6 -14 -14 -8 -23 12 -20 12 -49 1 -56 -6 -3 -7 -1
-3 5 5 8 0 12 -13 12 -11 0 -23 -5 -26 -10 -4 -6 -12 -8 -18 -4 -7 3 -2 -3 9
-13 l22 -20 -22 -13 c-19 -12 -20 -11 -8 2 10 13 10 17 -3 22 -9 3 -14 2 -10
-3 3 -5 1 -20 -4 -34 -7 -17 -6 -29 2 -38 9 -10 8 -10 -6 1 -10 7 -16 19 -13
27 9 21 -2 15 -15 -9 -16 -29 -20 -68 -8 -68 5 0 9 -5 9 -10 0 -6 -8 -5 -19 2
-11 7 -17 16 -14 22 3 5 1 6 -6 2 -6 -4 -9 -11 -6 -16 3 -4 -1 -11 -7 -14 -7
-3 -4 -4 6 -3 10 1 21 -5 23 -13 4 -12 3 -12 -5 -1 -6 8 -12 10 -16 3 -4 -6 2
-16 11 -22 17 -10 16 -10 -2 -8 -16 2 -19 -2 -17 -21 l2 -25 -18 22 c-26 30
-36 28 -16 -3 12 -18 13 -25 4 -23 -7 2 -14 -2 -17 -9 -3 -8 3 -11 17 -8 11 2
18 0 15 -5 -3 -4 -18 -7 -34 -6 -17 1 -28 -1 -25 -5 2 -4 -6 -15 -18 -23 -12
-9 -17 -16 -10 -16 6 0 12 -4 12 -10 0 -5 -8 -7 -17 -3 -10 3 -15 3 -11 -1 3
-4 14 -9 25 -11 10 -2 19 -4 21 -4 1 -1 -4 -14 -12 -30 -9 -16 -12 -31 -9 -35
4 -3 1 -6 -6 -6 -8 0 -11 7 -7 15 3 8 1 15 -4 15 -6 0 -10 -7 -10 -15 0 -9 -6
-12 -17 -8 -15 6 -16 5 -3 -9 8 -9 18 -14 21 -12 3 2 6 -3 6 -11 0 -10 -4 -12
-12 -5 -12 10 -25 4 -25 -12 0 -5 4 -7 9 -3 5 3 12 1 15 -4 3 -5 -8 -8 -24 -7
-18 1 -36 -4 -43 -13 -10 -14 -10 -14 5 -3 12 9 18 10 23 2 4 -6 13 -9 19 -7
7 3 13 -1 13 -8 0 -11 -5 -11 -20 -4 -10 6 -21 8 -25 5 -3 -3 -1 -6 3 -6 5 0
0 -7 -11 -15 -14 -11 -15 -14 -3 -9 19 6 35 -11 19 -21 -6 -4 -8 -11 -5 -16 4
-5 1 -9 -5 -9 -7 0 -9 7 -6 16 3 8 2 13 -3 10 -11 -7 -33 18 -24 27 3 4 1 7
-5 7 -6 0 -10 -9 -9 -19 0 -11 4 -19 7 -18 3 1 5 0 5 -3 0 -12 31 -37 39 -32
5 3 6 0 2 -6 -5 -8 -13 -9 -24 -3 -15 8 -17 3 -15 -39 1 -44 -1 -47 -20 -44
-13 3 -9 -2 11 -11 17 -8 32 -18 32 -21 0 -3 -4 -3 -8 0 -18 11 -62 14 -68 5
-3 -5 -2 -9 3 -8 20 3 34 -2 28 -11 -4 -6 -10 -8 -15 -5 -5 3 -12 0 -16 -6 -4
-8 -3 -9 4 -5 7 4 12 1 12 -6 1 -7 9 -3 20 11 11 13 20 20 20 16 0 -4 -11 -20
-25 -37 -20 -24 -23 -33 -14 -50 6 -11 8 -22 5 -26 -3 -3 -6 0 -6 6 0 6 -6 9
-14 6 -8 -3 -12 -12 -9 -20 3 -8 8 -12 12 -9 4 2 8 -2 8 -10 0 -10 -4 -12 -12
-5 -22 18 -24 -2 -2 -22 l22 -19 -23 11 c-12 6 -22 7 -22 3 0 -4 -5 -1 -10 7
-7 12 -9 10 -7 -7 0 -12 5 -19 9 -17 4 3 8 -2 8 -10 0 -15 12 -21 33 -17 5 1
6 -3 2 -8 -3 -6 -13 -7 -22 -4 -12 5 -14 3 -8 -7 5 -9 4 -11 -4 -6 -6 4 -9 11
-6 16 3 4 -2 11 -10 14 -13 4 -13 2 -5 -14 15 -28 12 -40 -8 -34 -9 3 -1 -4
18 -16 19 -12 28 -19 20 -17 -9 3 -24 -1 -35 -9 -10 -8 -13 -14 -7 -14 7 0 12
-5 12 -11 0 -5 -4 -8 -9 -4 -5 3 -12 1 -15 -4 -4 -5 -2 -12 3 -15 12 -8 34 21
26 34 -3 5 -1 10 4 10 6 0 10 -11 9 -24 -1 -14 -5 -23 -9 -20 -14 8 -17 -25
-3 -36 8 -7 14 -18 14 -24 0 -6 -5 -4 -10 4 -5 8 -10 13 -11 10 -7 -38 -4 -50
10 -45 11 3 10 0 -3 -10 -11 -8 -16 -15 -11 -15 5 0 4 -5 -3 -12 -7 -7 -12
-20 -12 -31 0 -10 -4 -16 -9 -12 -5 3 -12 1 -16 -4 -3 -6 3 -8 15 -6 11 2 23
-1 26 -7 4 -6 3 -9 -2 -6 -5 3 -18 2 -29 -3 -17 -6 -17 -8 -2 -8 21 -1 22 -9
0 -33 -13 -15 -14 -21 -4 -31 10 -9 11 -9 6 4 -4 10 -2 20 4 24 7 4 10 -2 7
-17 -2 -14 -10 -22 -20 -22 -22 2 -20 -3 5 -17 15 -8 19 -8 15 0 -4 6 -3 11 3
11 5 0 12 -4 15 -9 7 -11 -22 -23 -35 -15 -5 3 -9 0 -9 -5 0 -6 6 -11 13 -11
8 0 19 -11 25 -25 6 -14 8 -24 4 -24 -19 3 -23 -2 -12 -16 7 -8 9 -15 5 -15
-4 0 -2 -7 5 -16 8 -8 9 -14 4 -13 -5 1 -18 1 -29 -1 -20 -1 -20 -1 0 -9 19
-8 19 -8 -3 -20 -19 -10 -21 -15 -11 -27 6 -8 16 -14 22 -14 6 0 2 7 -9 15
-10 8 -14 15 -7 15 6 0 18 7 27 15 13 14 15 13 13 -4 0 -11 -5 -17 -9 -15 -17
11 -1 -37 18 -51 10 -9 13 -14 5 -13 -7 2 -15 -5 -16 -15 -2 -13 1 -17 11 -13
20 8 17 -2 -5 -13 -17 -10 -18 -7 -15 24 1 19 -2 38 -8 41 -7 5 -8 2 -3 -6 4
-7 2 -16 -6 -20 -10 -7 -10 -12 0 -23 9 -12 9 -16 -1 -20 -10 -4 -10 -6 0 -6
6 -1 12 -6 12 -12 0 -5 -4 -8 -8 -5 -5 3 -9 -1 -9 -9 0 -7 8 -12 19 -10 16 3
23 -6 19 -27 0 -5 4 -8 11 -8 6 0 1 -9 -12 -20 -17 -15 -19 -20 -7 -20 8 0 18
6 20 13 3 7 6 5 6 -5 1 -10 -6 -18 -14 -18 -12 0 -14 -4 -7 -16 5 -9 7 -25 5
-35 -3 -11 -1 -19 4 -19 6 0 9 11 8 25 -2 14 0 27 4 30 5 2 7 -14 5 -36 -2
-22 1 -37 6 -34 12 8 6 -23 -8 -37 -9 -9 -11 -7 -8 8 3 12 -4 25 -15 33 -19
11 -19 11 -3 -14 9 -14 12 -25 8 -25 -5 -1 2 -9 15 -20 12 -11 27 -18 31 -15
5 3 7 -3 5 -12 -1 -10 -9 -17 -17 -17 -8 1 -15 -5 -15 -12 0 -7 4 -11 9 -8 12
8 6 -29 -7 -39 -6 -5 -2 -6 9 -3 12 4 26 -2 42 -19 13 -14 19 -25 14 -25 -5 0
-16 10 -24 22 -9 12 -16 19 -16 15 0 -12 28 -65 37 -69 5 -3 3 -3 -4 -2 -7 2
-15 -2 -19 -8 -4 -7 -3 -8 4 -4 9 5 11 -4 7 -31 -3 -29 -2 -34 6 -20 6 9 8 21
4 26 -3 5 -2 12 3 15 5 3 9 -10 9 -29 0 -19 -4 -35 -9 -35 -4 0 -8 -4 -8 -8 0
-12 32 -11 47 0 7 5 14 5 18 -2 4 -6 1 -9 -6 -8 -6 2 -14 -3 -17 -11 -3 -9 0
-11 8 -6 9 5 11 4 6 -4 -4 -6 -1 -13 6 -16 22 -9 19 -42 -5 -54 -21 -11 -20
-11 6 -8 26 4 27 3 15 -17 -17 -28 -16 -58 2 -63 11 -3 11 -2 3 4 -14 10 -5
27 17 35 11 4 16 0 16 -13 0 -14 -3 -16 -15 -6 -12 10 -13 9 -3 -10 9 -16 9
-23 -1 -26 -7 -3 -5 -6 6 -6 9 -1 17 4 17 9 0 6 4 10 9 10 4 0 8 -10 7 -23 0
-12 4 -21 10 -20 6 1 11 -4 11 -12 0 -8 -3 -12 -7 -10 -3 2 -12 -6 -20 -18
-12 -20 -12 -21 4 -8 15 13 17 12 12 -13 -4 -22 1 -30 26 -46 18 -10 35 -17
38 -15 4 2 7 -2 7 -10 0 -10 -5 -11 -19 -4 -11 6 -18 6 -18 0 0 -5 9 -13 20
-16 11 -3 20 -11 20 -16 0 -6 -4 -8 -9 -4 -5 3 -12 1 -16 -4 -3 -6 3 -8 15 -6
11 2 22 -1 25 -6 4 -5 10 -7 15 -4 9 6 6 -28 -5 -44 -3 -5 -1 -12 5 -16 6 -4
7 -11 4 -17 -4 -6 1 -6 14 1 26 14 43 14 19 0 -18 -11 -14 -29 6 -29 7 0 6 4
-3 10 -12 7 -11 9 6 8 19 -2 20 -4 7 -28 -8 -15 -9 -26 -3 -28 6 -2 8 -8 4
-13 -3 -5 0 -8 8 -7 8 2 13 -6 12 -19 -1 -13 2 -20 7 -17 4 2 13 -5 19 -16 6
-11 15 -18 21 -15 5 4 9 2 9 -4 0 -5 -6 -12 -12 -15 -9 -4 -8 -5 2 -4 21 2 50
-12 50 -24 0 -5 -5 -6 -11 -3 -6 4 -5 -2 3 -14 8 -13 19 -19 29 -16 22 7 53
-23 40 -39 -6 -6 -6 -18 -2 -25 7 -10 11 -8 17 10 4 13 7 28 6 32 -1 5 2 6 8
2 7 -4 7 -13 -1 -26 -7 -14 -7 -24 0 -33 7 -9 7 -16 -1 -24 -8 -8 -6 -10 8 -7
11 2 21 4 23 4 2 1 -4 10 -13 20 -13 14 -14 21 -5 27 8 4 10 3 5 -4 -4 -6 2
-17 13 -24 16 -10 18 -15 8 -27 -10 -12 -9 -14 6 -8 11 4 16 3 12 -3 -3 -6 -1
-10 4 -10 6 0 11 -5 11 -11 0 -5 -4 -8 -8 -5 -5 3 -9 -1 -9 -7 0 -7 10 -14 21
-15 12 0 16 2 9 6 -8 5 -9 13 -3 22 8 13 10 13 10 0 0 -27 21 -40 44 -29 20 9
20 9 3 -4 -20 -16 -12 -26 16 -22 9 2 17 -1 17 -6 0 -5 -4 -9 -9 -9 -5 0 -11
-9 -14 -20 -3 -11 -1 -18 3 -15 5 3 11 1 15 -5 3 -5 12 -10 18 -10 7 0 6 4 -3
11 -13 9 -13 10 2 6 9 -3 19 -3 21 1 4 8 -2 -17 -11 -38 -5 -13 -4 -13 12 -1
14 12 19 12 25 2 5 -7 12 -13 17 -13 5 1 8 -6 6 -13 -1 -8 5 -26 14 -40 14
-21 18 -23 30 -10 11 10 21 12 38 5 13 -5 27 -6 32 -2 4 4 4 2 1 -4 -4 -7 9
-26 28 -43 20 -17 31 -31 26 -31 -5 0 -16 7 -24 15 -9 8 -17 11 -20 7 -2 -4
-2 0 0 8 3 11 1 12 -7 3 -9 -8 -9 -16 -1 -30 6 -10 11 -12 11 -6 0 15 70 -15
70 -29 0 -5 -5 -6 -12 -2 -7 5 -8 3 -3 -6 6 -10 10 -10 19 2 15 20 46 19 38
-1 -3 -9 -10 -23 -16 -31 -10 -13 -9 -13 8 0 18 14 19 13 13 -2 -4 -13 -1 -16
14 -13 10 2 19 -1 19 -6 0 -6 4 -8 8 -5 5 3 19 -2 31 -10 19 -13 20 -18 9 -32
-12 -15 -11 -16 5 -3 15 12 17 11 18 -5 0 -12 3 -14 6 -6 3 7 -3 22 -13 33 -9
10 -13 19 -8 20 5 0 0 4 -11 9 -17 8 -17 8 7 7 19 -1 24 -5 18 -13 -10 -11 -3
-24 12 -24 5 0 6 5 2 12 -4 7 -3 8 5 4 6 -4 9 -11 6 -16 -11 -18 7 -41 29 -34
19 6 20 5 6 -12 -14 -18 -14 -18 3 -5 13 10 14 17 7 26 -8 9 -8 15 0 20 5 3
10 5 11 3 4 -19 10 -46 11 -60 2 -13 5 -14 15 -6 14 11 18 22 5 14 -4 -2 -8 4
-8 15 0 19 1 18 19 -3 17 -20 18 -21 12 -3 -5 15 -3 17 6 8 13 -13 3 -36 -13
-27 -7 4 -8 2 -4 -4 10 -16 33 -15 39 1 4 9 6 9 6 0 1 -7 6 -13 12 -13 5 0 7
6 3 13 -4 7 -3 9 2 4 5 -5 9 -13 9 -18 0 -5 5 -8 10 -7 6 2 9 7 7 11 -1 5 2 5
8 2 6 -4 9 -9 6 -12 -3 -3 4 -15 15 -27 20 -21 20 -21 36 -1 13 16 14 16 9 3
-3 -10 -9 -26 -12 -35 -5 -15 -4 -14 9 2 9 11 17 16 17 11 0 -6 7 -1 16 10 14
18 14 18 3 -6 -9 -18 -9 -25 0 -28 6 -2 9 -8 6 -13 -4 -5 1 -6 10 -2 12 4 13
8 5 13 -14 9 -5 30 13 30 7 0 6 -4 -3 -10 -14 -9 -7 -14 13 -11 4 1 3 -8 -3
-18 -10 -19 0 -37 14 -24 11 11 48 14 41 3 -3 -5 -3 -10 2 -11 4 0 16 -2 26
-4 9 -2 15 0 13 4 -3 4 0 13 5 21 9 13 10 13 8 0 -3 -28 1 -41 11 -35 5 3 7
13 4 23 -5 14 -4 14 4 3 6 -8 9 -22 7 -31 -3 -15 0 -16 20 -6 13 6 21 15 17
21 -7 12 23 -11 55 -43 23 -23 43 -22 43 1 0 8 -3 8 -9 -1 -7 -11 -9 -10 -15
3 -3 9 -10 13 -16 10 -5 -3 -10 -1 -10 4 0 11 35 10 46 -2 15 -15 26 -6 13 11
-12 15 -12 16 2 5 9 -7 19 -10 22 -6 4 3 7 2 7 -4 0 -6 -7 -13 -15 -17 -8 -3
-15 -11 -15 -18 0 -9 3 -8 10 2 9 14 14 7 11 -13 -1 -5 3 -6 9 -2 6 3 8 10 5
15 -3 5 -1 11 5 15 5 3 10 1 10 -4 0 -6 5 -11 11 -11 5 0 8 4 5 9 -4 5 2 8 11
6 10 -2 21 -4 26 -4 14 -2 7 -18 -8 -18 -8 0 -11 5 -8 10 3 6 1 7 -5 3 -6 -4
-8 -14 -5 -24 6 -15 5 -15 -10 -3 -9 7 -17 9 -17 3 0 -17 30 -23 36 -7 4 8 11
12 18 8 6 -4 21 -7 33 -8 12 0 29 -9 38 -20 11 -15 13 -15 9 -3 -4 12 -1 16
13 13 10 -2 22 -4 27 -4 5 -1 2 -9 -5 -18 -13 -16 -12 -17 3 -4 10 7 15 17 12
22 -3 5 0 9 6 9 6 0 9 4 6 9 -4 5 4 7 16 3 16 -4 19 -2 13 8 -5 9 -4 11 4 6 6
-4 9 -12 6 -17 -4 -5 -1 -17 5 -26 10 -15 11 -15 6 -1 -7 22 3 29 26 17 10 -5
15 -15 12 -21 -4 -6 -3 -8 4 -4 5 3 13 0 16 -6 3 -7 3 -3 1 9 -3 12 0 25 6 29
8 4 9 3 5 -4 -11 -18 5 -14 28 5 20 17 20 17 7 1 -12 -16 -11 -18 7 -18 11 0
22 5 24 12 3 7 7 5 11 -6 4 -10 3 -15 -3 -11 -6 3 -10 2 -10 -3 0 -6 7 -13 16
-16 9 -4 13 -2 8 5 -4 7 -1 10 7 7 8 -3 14 -10 14 -16 0 -5 4 -14 9 -19 5 -5
6 -3 2 5 -7 12 9 17 49 14 16 -2 17 0 5 8 -12 8 -13 10 -1 10 8 0 12 2 9 5 -3
3 -17 0 -32 -6 -23 -11 -30 -10 -47 8 -16 15 -17 20 -5 20 8 0 13 -4 11 -8 -3
-4 2 -10 11 -13 25 -10 27 -7 13 12 -13 15 -12 16 3 4 13 -10 22 -11 39 -2 14
8 19 8 15 1 -4 -6 -2 -11 4 -11 6 0 9 -4 6 -9 -3 -5 1 -14 9 -21 12 -10 13 -8
10 9 -3 19 5 26 28 22 5 -1 6 9 2 21 -5 20 -4 21 5 5 12 -19 4 -41 -11 -32 -5
4 -9 2 -9 -3 0 -5 18 -9 40 -9 22 0 40 4 40 8 0 4 -8 6 -18 4 -10 -2 -19 2
-19 9 0 20 82 13 109 -9 13 -11 17 -13 11 -5 -17 18 -16 27 2 27 8 0 11 -5 8
-10 -3 -5 0 -7 8 -5 8 3 13 11 11 17 -1 7 2 9 8 6 6 -4 9 -14 6 -22 -4 -9 -2
-11 6 -7 8 5 9 2 5 -10 -4 -11 -3 -15 4 -10 6 3 9 15 6 25 -3 11 -1 19 5 19 5
0 6 5 3 10 -4 6 -3 10 2 9 24 -4 43 2 37 13 -4 7 -3 8 4 4 17 -11 15 -15 -13
-26 -30 -11 -33 -26 -6 -26 11 0 18 3 15 7 -6 10 17 17 38 11 10 -2 15 -9 11
-16 -3 -6 0 -5 8 2 12 11 12 14 -1 22 -8 5 -11 10 -6 10 5 0 17 -7 27 -16 16
-15 19 -14 30 4 10 16 18 18 35 12 12 -5 25 -6 28 -3 3 4 6 1 6 -5 0 -7 5 -12
11 -12 8 0 8 4 -1 15 -10 12 -6 14 27 10 26 -3 33 -2 23 4 -8 5 -18 7 -22 5
-4 -3 -5 2 -2 11 5 12 10 13 17 6 16 -16 37 -13 31 4 -4 8 -1 15 6 15 6 0 8
-5 4 -11 -4 -8 1 -9 16 -4 17 5 21 4 15 -6 -5 -8 -5 -11 0 -7 4 4 14 0 22 -10
9 -11 8 -5 -3 18 -9 19 -13 32 -9 27 5 -4 17 0 27 10 10 9 18 13 18 8 0 -4 -7
-13 -15 -19 -11 -8 -12 -15 -4 -26 9 -13 10 -12 5 3 -3 9 -1 17 4 17 5 0 14
-8 20 -17 11 -17 11 -17 6 -1 -4 12 0 18 10 18 11 0 14 6 10 16 -3 8 -2 12 4
9 6 -3 13 1 16 10 6 14 8 14 21 -2 14 -17 14 -17 9 -1 -3 12 2 21 17 28 19 10
20 9 6 -2 -9 -7 -14 -19 -11 -26 3 -10 7 -8 17 5 11 15 15 15 29 4 18 -15 22
-1 5 16 -17 17 -1 35 21 23 13 -7 21 -6 29 4 15 18 40 14 59 -10 11 -14 13
-15 9 -3 -3 9 0 22 6 29 9 10 9 11 -2 5 -10 -6 -12 -4 -6 5 6 10 12 9 24 -6
15 -18 17 -18 32 -3 9 9 20 22 24 30 7 11 6 12 -7 2 -8 -7 -19 -9 -23 -5 -5 4
-5 2 -2 -4 3 -6 0 -11 -6 -11 -7 0 -14 10 -15 21 0 11 2 16 6 11 9 -13 21 -13
49 3 23 13 26 2 8 -28 -8 -13 -7 -13 8 -1 9 7 14 17 11 22 -3 5 0 9 6 9 6 0 9
4 6 9 -11 17 21 34 41 21 16 -10 16 -10 -4 -5 -12 3 -24 1 -27 -4 -5 -8 28 -9
53 -2 2 0 -4 11 -15 23 -10 13 -12 17 -4 11 10 -8 21 -9 30 -3 19 12 33 13 25
1 -3 -5 0 -13 6 -17 7 -4 9 -3 6 3 -10 16 21 52 43 50 11 -1 20 -6 20 -12 0
-5 4 -4 9 4 5 8 7 20 4 28 -4 11 -8 11 -17 -2 -10 -15 -12 -14 -12 4 0 11 4
17 8 15 4 -3 8 0 8 7 0 7 6 5 14 -6 14 -19 46 -30 46 -15 0 5 -10 12 -21 15
-17 6 -19 9 -8 16 8 4 18 4 23 -1 10 -10 36 -2 36 12 0 7 -5 6 -14 -1 -10 -9
-15 -8 -19 3 -3 8 1 13 11 12 9 0 16 5 14 12 -2 9 4 8 21 -3 20 -13 24 -13 24
0 0 8 -4 12 -8 9 -4 -2 -10 0 -13 5 -4 5 5 8 19 6 18 -2 23 1 15 9 -7 9 -1 12
20 10 27 -2 29 0 19 18 -7 13 -7 18 -1 14 6 -3 14 -1 17 5 4 5 13 8 21 5 19
-7 18 3 -3 27 -18 20 -18 20 10 2 15 -9 27 -14 27 -10 0 4 7 1 17 -6 15 -13
15 -12 3 8 -8 12 -19 19 -25 15 -5 -3 -4 2 4 11 13 16 36 14 26 -3 -3 -5 0
-12 6 -16 7 -4 9 -3 6 3 -4 6 0 16 7 22 11 10 16 8 24 -5 8 -15 9 -15 15 0 4
10 3 15 -2 11 -5 -3 -11 1 -14 7 -3 10 -7 10 -20 -1 -11 -8 -17 -9 -17 -2 0
13 44 26 59 17 5 -4 12 -2 16 4 4 6 11 8 16 4 5 -3 8 0 7 8 -2 7 5 12 15 11
18 -1 18 0 0 17 -10 9 -22 15 -27 12 -4 -2 -3 -8 3 -11 8 -5 5 -13 -8 -25 -16
-15 -19 -15 -24 -2 -8 20 33 60 46 47 5 -5 15 -7 23 -4 10 4 10 8 1 18 -7 7
-15 11 -19 8 -4 -2 -5 3 -1 13 5 15 7 15 15 0 13 -24 33 -19 61 14 16 18 27
25 30 17 2 -6 4 3 5 20 0 18 -4 33 -9 33 -5 0 -9 5 -9 11 0 8 5 7 16 -2 14
-11 18 -10 30 6 9 12 11 21 4 23 -5 2 -10 8 -10 14 0 6 6 5 15 -2 9 -7 14 -19
11 -27 -8 -21 0 -15 18 11 11 18 13 27 4 32 -7 4 -8 3 -4 -4 5 -8 2 -10 -8 -6
-9 3 -16 11 -16 17 0 6 3 7 7 4 9 -10 34 14 26 26 -4 6 -1 7 7 2 8 -5 19 1 30
16 16 20 20 21 34 10 9 -7 16 -10 16 -7 0 11 -27 36 -32 31 -3 -3 -5 2 -5 10
0 13 3 13 18 -1 11 -10 19 -12 24 -4 3 5 10 8 15 5 5 -3 12 -1 15 5 4 6 3 9
-2 8 -4 -2 -8 2 -8 7 0 5 3 9 8 8 17 -6 5 15 -15 25 -22 11 -22 11 4 7 15 -2
31 1 34 7 4 7 2 8 -4 4 -7 -4 -12 -2 -12 5 0 7 8 9 21 6 16 -4 18 -3 9 8 -6 8
-19 12 -29 10 -10 -2 -24 1 -32 6 -10 7 -6 8 13 5 19 -3 31 1 38 12 5 10 10
12 10 5 0 -7 4 -13 10 -13 5 0 7 8 4 18 -5 14 -3 14 12 -3 15 -18 16 -19 10
-1 -3 10 -1 24 4 32 6 7 12 26 12 43 1 20 6 31 15 31 8 0 11 5 7 12 -5 7 -3 8
6 3 10 -6 12 -3 8 13 -3 12 -3 21 1 20 20 -2 31 4 31 17 0 8 4 15 9 15 5 0 16
12 26 26 9 15 13 24 7 20 -5 -3 -13 1 -16 10 -3 8 -11 12 -17 8 -8 -4 -9 -3
-5 5 6 9 11 9 23 -1 14 -11 15 -10 9 8 -5 15 -2 24 10 28 9 4 19 4 22 1 3 -3
1 -5 -4 -5 -5 0 -10 -9 -11 -20 -1 -11 3 -20 9 -20 6 0 8 3 5 6 -3 4 -1 16 6
28 15 28 18 86 3 86 -6 0 -3 5 7 11 9 6 15 14 12 19 -7 12 30 32 40 22 5 -4 4
-1 0 7 -6 11 -4 13 8 8 24 -9 21 0 -4 14 -12 6 -19 7 -15 1 3 -5 0 -12 -7 -15
-7 -3 -13 5 -14 21 0 14 2 21 5 16 12 -17 47 -10 47 9 0 10 10 28 22 41 16 16
18 23 7 23 -7 0 -14 -5 -15 -11 0 -6 -4 -2 -8 9 -5 11 -4 23 2 26 13 9 -2 31
-15 23 -7 -4 -8 -2 -4 4 5 9 12 9 26 0 14 -9 16 -16 8 -25 -7 -9 -7 -13 1 -13
6 0 12 6 12 13 1 6 2 19 3 27 0 8 6 14 13 13 7 -2 10 4 7 12 -7 17 -25 20 -21
4 1 -6 -5 -14 -13 -16 -12 -4 -12 -3 -2 5 17 12 17 22 0 34 -10 7 -9 8 5 4 20
-6 22 4 5 23 -11 11 -10 12 1 6 11 -6 13 -4 8 8 -4 11 -2 14 9 10 10 -4 12 -9
5 -16 -11 -11 -4 -37 11 -37 7 0 6 5 -1 14 -9 10 -8 16 3 25 15 13 11 41 -6
41 -5 0 -6 -4 -3 -10 3 -6 -1 -7 -9 -4 -14 5 -14 8 0 21 12 13 17 13 32 1 16
-12 16 -11 2 6 -14 18 -13 19 2 13 10 -3 20 -2 23 3 3 4 -6 7 -20 5 -19 -2
-23 1 -15 10 8 9 8 15 0 20 -6 3 -7 11 -4 17 5 7 1 9 -9 5 -9 -3 -19 -1 -23 6
-4 7 -4 9 1 5 4 -4 14 -3 22 3 12 11 18 2 15 -23 -1 -3 5 -8 12 -11 9 -4 12 3
10 21 -1 15 3 30 9 35 7 5 3 6 -10 2 -14 -4 -23 -2 -23 4 0 6 7 12 15 12 29 3
33 4 42 13 5 5 3 6 -4 2 -8 -4 -13 -1 -13 8 0 9 6 16 12 16 7 0 2 7 -10 16
-12 8 -28 12 -35 9 -6 -4 -5 -1 3 7 9 7 15 20 15 28 -1 8 1 20 4 25 9 16 8 29
-4 38 -6 5 -4 7 5 4 8 -2 14 -13 14 -25 -1 -12 2 -19 7 -17 11 7 3 43 -17 74
-14 20 -14 23 -2 14 8 -7 17 -10 20 -7 3 3 5 -2 5 -12 -1 -9 5 -19 13 -21 13
-4 13 -3 0 6 -13 9 -13 12 -1 20 11 7 10 10 -6 15 -11 3 -20 13 -20 20 0 12 5
11 26 -2 l26 -16 -23 23 c-12 12 -20 26 -17 31 3 4 0 10 -7 12 -8 3 -6 7 4 11
12 4 16 1 13 -13 -3 -13 1 -17 12 -13 8 3 11 9 6 12 -12 9 -16 44 -4 36 7 -3
8 0 5 9 -3 9 -10 16 -16 16 -5 0 -6 -4 -3 -10 4 -6 -1 -7 -11 -3 -16 6 -15 8
4 16 12 6 22 14 22 19 0 5 -4 6 -10 3 -5 -3 -10 -1 -10 5 0 6 -5 8 -11 5 -6
-4 -5 2 2 13 7 11 19 18 26 15 7 -3 13 0 13 7 0 6 -4 9 -9 5 -13 -7 -30 26
-23 44 3 10 0 12 -12 8 -10 -4 -15 -3 -11 3 7 11 31 9 55 -4 8 -4 2 4 -14 18
-17 14 -35 22 -40 18 -6 -3 -5 2 3 11 11 14 11 20 0 35 -12 15 -12 16 1 5 10
-8 21 -9 30 -3 13 9 13 10 0 10 -9 0 -11 3 -5 8 13 9 17 52 5 52 -5 0 -7 -9
-5 -20 2 -11 0 -20 -6 -20 -5 0 -7 11 -5 26 4 18 0 27 -14 32 -18 7 -17 8 5
18 20 10 23 9 20 -8 -2 -10 0 -16 5 -13 10 6 8 24 -4 44 -5 8 -4 16 4 21 8 5
7 9 -6 14 -10 4 -21 1 -26 -6 -5 -9 -8 -10 -8 -1 0 6 5 15 10 18 6 4 7 12 3
18 -3 7 4 3 18 -8 13 -11 21 -16 17 -11 -4 5 -2 16 5 25 11 14 10 15 -7 1 -18
-14 -19 -13 -14 1 5 13 2 16 -15 12 -21 -5 -21 -5 1 12 16 12 20 21 14 27 -6
6 -8 17 -5 24 3 8 0 14 -7 14 -6 0 -9 -4 -6 -8 2 -4 -4 -8 -15 -8 -28 0 -23
13 8 21 15 3 23 9 17 13 -9 7 -15 40 -15 87 0 16 -2 17 -9 5 -5 -8 -5 -21 0
-31 7 -12 3 -19 -18 -28 -22 -9 -24 -9 -11 2 9 7 17 25 17 40 0 27 -1 28 -22
10 -21 -18 -21 -18 -4 3 17 19 17 21 0 38 -16 18 -16 18 9 2 22 -14 26 -14 26
-2 0 8 -3 14 -6 13 -12 -4 -47 28 -54 48 -7 19 -6 19 7 2 8 -11 17 -14 20 -8
4 5 2 12 -4 16 -5 3 -10 11 -10 18 0 6 6 2 14 -8 8 -11 12 -27 11 -37 -2 -10
0 -18 5 -18 13 0 8 43 -7 58 -20 20 -16 37 5 21 16 -13 16 -12 1 6 -9 11 -14
26 -12 33 6 15 -2 15 -27 2 -13 -7 -21 -7 -25 0 -4 6 -3 10 2 9 22 -4 25 2 7
17 -18 15 -18 15 3 5 16 -8 22 -7 26 3 3 7 -1 13 -9 14 -8 1 -21 3 -29 4 -8 1
-13 4 -10 6 3 3 -1 12 -7 21 -8 10 -4 9 10 -3 19 -17 22 -17 22 -3 0 10 -4 17
-10 17 -5 0 -6 8 -3 18 6 15 5 16 -12 2 -17 -14 -18 -14 -7 6 6 12 8 24 5 28
-6 6 12 10 30 7 5 -1 6 3 2 9 -4 7 -19 3 -43 -11 -20 -11 -29 -14 -19 -6 17
14 24 33 9 23 -16 -9 -8 79 7 92 14 11 12 11 -7 2 -12 -6 -20 -15 -17 -20 7
-11 -22 -7 -32 5 -4 4 -2 5 5 1 7 -4 12 -1 12 8 0 8 -8 20 -17 25 -15 8 -15
11 -3 12 8 1 21 1 28 0 6 -1 12 2 12 8 0 5 -11 8 -25 7 -25 -3 -54 19 -41 31
3 3 6 2 6 -4 0 -5 7 -10 15 -10 8 0 12 4 9 8 -2 4 2 10 8 13 7 3 4 4 -6 3 -10
-1 -21 4 -24 12 -2 8 0 11 5 8 5 -3 10 0 10 8 0 8 -5 13 -11 12 -6 -1 -10 3
-9 8 1 6 -7 22 -18 35 -11 14 -18 19 -17 11 2 -7 -3 -15 -10 -16 -7 -2 -8 -1
-2 2 5 2 8 9 5 14 -3 5 -1 19 6 31 12 23 12 23 -9 4 -12 -10 -19 -22 -17 -27
3 -4 1 -10 -4 -13 -4 -3 -8 4 -7 17 1 13 -4 21 -12 19 -8 -1 -11 2 -7 8 5 8
12 7 23 -2 13 -11 15 -10 9 5 -4 12 -1 17 11 18 13 0 12 2 -5 9 -16 6 -20 15
-17 32 4 21 4 21 -5 3 -5 -12 -5 -25 1 -32 15 -18 2 -16 -16 3 -9 8 -16 21
-16 27 0 7 5 6 11 -3 9 -13 10 -13 6 1 -3 9 -1 21 5 27 6 6 6 12 -1 17 -6 3
-10 1 -9 -6 2 -6 -3 -14 -10 -16 -8 -3 -10 1 -6 12 4 9 3 15 -2 14 -26 -4 -35
2 -29 21 7 22 -10 28 -19 8 -3 -7 -3 -3 0 9 3 15 -1 26 -15 35 -16 10 -18 15
-8 27 9 11 9 15 -1 18 -6 3 -10 8 -7 13 7 11 -28 7 -38 -5 -5 -6 -7 -4 -4 5 2
8 9 14 15 13 7 -2 9 4 5 14 -5 12 -3 14 8 8 8 -5 11 -5 6 1 -5 5 -13 10 -18
10 -22 3 -23 5 -9 15 12 8 12 10 1 7 -8 -2 -15 -12 -17 -21 -1 -10 2 -14 8
-11 7 4 8 2 4 -4 -11 -18 -27 -14 -24 6 2 10 -2 16 -10 14 -8 -1 -11 2 -8 7 3
5 -1 12 -10 15 -8 3 -12 10 -9 16 3 6 -1 13 -10 16 -9 4 -14 13 -11 20 3 7 1
16 -4 19 -6 4 -10 1 -10 -4 0 -6 -4 -11 -8 -11 -5 0 -9 6 -9 14 0 15 14 16 35
2 8 -5 19 -3 25 3 9 9 7 10 -7 5 -12 -4 -17 -4 -13 2 3 6 -3 10 -13 11 -11 1
-35 14 -54 29 -33 26 -34 29 -19 53 10 17 10 21 2 11 -8 -9 -18 -15 -24 -15
-16 1 -51 24 -37 25 7 0 10 5 7 10 -5 8 -12 7 -23 -2 -10 -8 -13 -9 -9 -1 8
14 -20 46 -34 38 -5 -4 -9 -2 -9 3 0 6 7 13 16 16 22 9 31 7 16 -3 -20 -12 7
-21 33 -10 18 7 18 8 2 8 -11 1 -15 6 -11 13 4 6 3 8 -3 5 -6 -4 -23 5 -39 18
-16 14 -25 25 -20 25 5 0 -4 10 -20 22 -16 13 -34 22 -41 20 -7 -2 -13 6 -13
18 0 11 -4 20 -9 20 -5 0 -8 -8 -7 -17 1 -18 43 -49 59 -45 5 1 5 -3 1 -9 -4
-8 -3 -9 4 -5 15 9 15 -14 1 -34 -9 -13 -10 -13 -6 1 7 21 -11 39 -32 32 -12
-4 -13 -3 -3 5 11 7 10 10 -3 16 -9 3 -21 4 -25 1 -5 -3 -7 3 -5 14 2 10 -3
27 -10 38 -13 16 -14 15 -9 -12 3 -16 2 -27 -1 -23 -6 5 -12 28 -14 51 -1 5
-5 6 -9 3 -4 -2 -14 -1 -21 3 -10 6 -9 12 4 25 9 9 13 16 8 16 -5 0 -14 -5
-20 -11 -8 -8 -17 -7 -34 2 -13 7 -28 13 -34 14 -5 0 -11 6 -11 13 -3 25 -5
27 -14 12 -8 -12 -10 -9 -8 10 2 14 7 28 13 32 12 9 -37 4 -52 -5 -6 -4 -16 0
-22 7 -9 11 -9 16 0 22 7 4 9 3 5 -4 -3 -6 -2 -13 3 -16 5 -3 11 0 14 8 8 21
-17 27 -42 10 -11 -8 -21 -11 -21 -7 0 10 42 38 53 35 5 -1 5 3 2 9 -5 8 -10
8 -18 0 -15 -15 -30 -14 -21 1 4 7 3 8 -5 4 -6 -4 -9 -12 -6 -17 3 -5 -1 -6
-10 -3 -10 4 -12 10 -6 18 6 8 6 17 0 26 -9 13 -10 13 -7 0 3 -8 0 -20 -6 -26
-8 -8 -15 -6 -28 9 -23 26 -23 45 0 20 9 -10 16 -17 15 -15 -1 3 2 14 8 26 9
20 9 20 -4 3 -10 -12 -16 -14 -19 -6 -2 7 -12 13 -21 15 -9 1 -15 -2 -12 -7 4
-5 1 -17 -5 -26 -11 -17 -11 -17 -6 0 9 29 -4 47 -35 47 -16 0 -29 5 -29 11 0
6 9 8 23 4 19 -5 20 -5 4 5 -14 9 -22 9 -33 0 -7 -7 -14 -9 -14 -4 0 4 -5 3
-11 -3 -9 -9 -17 -6 -31 12 -17 21 -23 23 -41 14 -17 -9 -19 -9 -11 0 6 7 18
13 25 14 8 2 20 6 27 10 11 7 17 -9 13 -35 0 -4 8 -6 18 -5 19 1 22 20 6 34
-4 4 -5 2 -1 -4 4 -7 3 -13 -2 -13 -5 0 -12 9 -15 19 -3 12 -12 18 -23 17 -11
-2 -25 1 -31 7 -7 5 -13 6 -13 1 0 -5 -5 -2 -10 6 -8 13 -11 13 -22 1 -11 -11
-11 -13 1 -6 9 5 12 4 7 -3 -4 -7 1 -10 14 -7 11 2 22 0 25 -6 9 -14 -45 -6
-57 8 -7 9 -7 18 3 31 12 15 12 16 -1 6 -19 -14 -62 -25 -55 -14 3 4 0 19 -5
32 -10 23 -10 23 -6 1 2 -13 0 -26 -5 -29 -5 -3 -6 -10 -3 -16 4 -7 2 -8 -5
-4 -8 5 -9 12 -2 20 6 7 6 17 1 26 -8 13 -10 12 -10 -2 0 -10 -4 -18 -9 -18
-12 0 -9 33 4 42 6 4 -6 5 -25 3 -19 -3 -41 -6 -48 -7 -7 -1 -10 -8 -8 -15 4
-8 1 -11 -5 -8 -6 4 -8 13 -5 21 3 8 -1 14 -10 14 -11 0 -12 4 -5 18 8 15 6
18 -14 18 -13 0 -21 -4 -19 -8 3 -4 2 -8 -3 -9 -4 0 -18 -2 -31 -3 -13 -2 -25
1 -28 6 -3 4 -10 5 -16 2 -7 -4 -8 -2 -4 4 4 7 -2 11 -16 11 -50 1 -58 3 -58
10 0 5 -11 9 -25 9 -14 0 -25 -5 -25 -11 0 -6 -3 -7 -7 -4 -3 4 1 15 11 26 15
17 15 19 -1 32 -16 12 -17 12 -6 -2 15 -19 7 -30 -15 -22 -11 5 -13 3 -7 -8 7
-11 6 -12 -7 -2 -8 7 -18 10 -21 6 -4 -3 1 -12 11 -20 15 -13 15 -13 -4 -4
-11 5 -26 16 -33 24 -9 12 -6 14 19 12 17 -1 32 1 35 5 3 4 -9 6 -26 5 -17 -2
-33 3 -35 9 -2 7 -15 12 -27 13 -12 0 -16 -1 -9 -4 6 -3 10 -9 7 -14 -4 -5 2
-6 12 -3 12 4 10 0 -7 -14 -30 -25 -44 -19 -35 15 4 18 2 24 -7 20 -7 -2 -12
-13 -10 -23 2 -11 0 -15 -5 -8 -4 6 -16 10 -26 8 -9 -1 -15 2 -11 7 9 15 -6
10 -37 -12 -22 -15 -27 -17 -23 -5 3 9 12 16 20 16 16 0 19 26 5 35 -5 3 -13
0 -17 -6 -4 -8 -3 -9 4 -5 7 4 12 5 12 2 0 -3 -10 -10 -21 -17 -15 -8 -19 -8
-15 0 4 6 0 11 -9 11 -9 0 -14 4 -11 8 2 4 0 14 -6 22 -8 13 -9 12 -5 -1 3 -9
0 -22 -6 -28 -9 -10 -9 -12 2 -9 9 2 16 -6 18 -17 l3 -20 -9 20 c-5 11 -10 16
-10 11 -1 -5 -7 -4 -13 1 -11 8 -73 10 -80 3 -10 -10 -48 -5 -52 7 -4 11 -1
11 15 3 14 -8 24 -8 33 -1 7 6 16 8 19 4 4 -3 7 -1 7 6 0 8 -7 10 -20 6 -15
-5 -18 -3 -14 9 3 9 3 16 0 16 -3 0 -6 -5 -6 -11z m-5 -19 c3 -6 -1 -7 -9 -4
-18 7 -21 14 -7 14 6 0 13 -4 16 -10z m-54 -33 c-10 -9 -11 -8 -5 6 3 10 9 15
12 12 3 -3 0 -11 -7 -18z m-377 -8 c3 -3 -4 -5 -14 -6 -11 -1 -22 2 -24 6 -5
8 30 8 38 0z m650 -17 c3 -5 -1 -9 -9 -9 -8 0 -12 4 -9 9 3 4 7 8 9 8 2 0 6
-4 9 -8z m-747 -15 c0 -8 -6 -14 -14 -14 -9 0 -10 4 -2 14 6 7 12 13 14 13 1
0 2 -6 2 -13z m-235 -48 c-9 -10 -17 -19 -18 -19 -1 0 4 43 5 47 1 1 7 0 15
-3 12 -5 12 -9 -2 -25z m1406 -3 c-10 -7 -15 -16 -11 -20 4 -4 0 -4 -10 -1
-15 6 -14 9 6 25 12 10 24 16 27 13 3 -2 -3 -10 -12 -17z m-1502 -11 c-3 -9
-11 -13 -16 -10 -8 5 -7 11 1 21 14 18 24 11 15 -11z m1608 -13 c2 -4 0 -14
-6 -22 -8 -12 -9 -12 -4 3 6 20 -4 22 -24 5 -12 -11 -12 -10 -1 5 14 18 27 22
35 9z m100 -70 c2 -4 -4 -8 -15 -8 -10 0 -19 4 -19 8 0 4 6 8 14 8 8 0 17 -4
20 -8z m-1945 -16 c11 -14 6 -15 -27 -7 -4 1 8 21 12 21 2 0 9 -6 15 -14z
m-64 -26 c-3 -5 -12 -10 -18 -10 -7 0 -6 4 3 10 19 12 23 12 15 0z m2222 -62
c-3 -8 -6 -5 -6 6 -1 11 2 17 5 13 3 -3 4 -12 1 -19z m-22 2 c-3 -5 -12 -10
-18 -10 -7 0 -6 4 3 10 19 12 23 12 15 0z m-2345 -34 c0 -3 -4 -8 -10 -11 -5
-3 -10 -1 -10 4 0 6 5 11 10 11 6 0 10 -2 10 -4z m-135 -86 c3 -6 -1 -7 -9 -4
-18 7 -21 14 -7 14 6 0 13 -4 16 -10z m2705 0 c-20 -13 -33 -13 -25 0 3 6 14
10 23 10 15 0 15 -2 2 -10z m-2734 -12 c4 -7 3 -8 -4 -4 -7 4 -12 2 -12 -5 0
-7 -3 -10 -6 -6 -6 5 3 27 11 27 2 0 7 -5 11 -12z m-36 -20 c0 -18 -2 -20 -9
-8 -6 8 -7 18 -5 22 9 14 14 9 14 -14z m-5 -36 c-3 -3 -11 0 -18 7 -9 10 -8
11 6 5 10 -3 15 -9 12 -12z m-131 -83 c-3 -5 -10 -7 -15 -3 -5 3 -7 10 -3 15
3 5 10 7 15 3 5 -3 7 -10 3 -15z m33 6 c0 -8 -4 -12 -9 -9 -4 3 -8 9 -8 15 0
5 4 9 8 9 5 0 9 -7 9 -15z m-71 -37 c4 -6 3 -8 -4 -4 -6 3 -15 -2 -21 -11 -12
-20 -14 -13 -5 11 7 19 20 21 30 4z m3245 -45 c7 -10 9 -15 5 -11 -5 4 -14 4
-20 -2 -8 -6 -12 -3 -13 11 -2 24 10 25 28 2z m-3366 -53 c-7 -11 24 -22 38
-14 9 5 9 4 0 -6 -14 -15 -45 0 -49 24 -1 9 2 14 7 10 5 -3 7 -9 4 -14z m3495
-114 c0 -2 -7 -7 -16 -10 -8 -3 -12 -2 -9 4 6 10 25 14 25 6z m20 -26 c0 -5
-2 -10 -4 -10 -3 0 -8 5 -11 10 -3 6 -1 10 4 10 6 0 11 -4 11 -10z m-3660 -96
c0 -8 -19 -13 -24 -6 -3 5 1 9 9 9 8 0 15 -2 15 -3z m-69 -41 c12 -16 12 -17
-2 -6 -9 7 -20 9 -24 5 -5 -4 -5 -1 -1 6 9 16 11 15 27 -5z m-11 -43 c0 -5 -5
-10 -11 -10 -5 0 -7 5 -4 10 3 6 8 10 11 10 2 0 4 -4 4 -10z m3900 0 c0 -5 -4
-10 -10 -10 -5 0 -10 5 -10 10 0 6 5 10 10 10 6 0 10 -4 10 -10z m-3963 -67
c-11 -10 -26 8 -20 23 5 15 7 14 15 -1 6 -9 7 -19 5 -22z m-122 -189 c-25 -11
-27 -18 -4 -16 3 1 6 -6 6 -14 0 -11 -4 -11 -19 2 -21 20 -10 39 24 41 20 1
19 -1 -7 -13z m4271 -42 c-3 -3 -2 -10 4 -16 5 -7 5 -17 0 -26 -9 -14 -12 -7
-9 16 0 4 -5 10 -11 14 -7 4 -9 13 -6 19 4 6 12 9 17 5 6 -3 8 -9 5 -12z m160
-417 c-1 -8 -8 -21 -16 -28 -10 -9 -11 -9 -6 1 4 7 2 12 -5 12 -7 0 -4 7 7 15
24 18 23 18 20 0z m-4600 -23 c-17 -16 -18 -16 -5 5 7 12 15 20 18 17 3 -2 -3
-12 -13 -22z m-45 -129 c13 -16 12 -17 -3 -4 -10 7 -18 15 -18 17 0 8 8 3 21
-13z m-1 -73 c0 -5 -2 -10 -4 -10 -3 0 -8 5 -11 10 -3 6 -1 10 4 10 6 0 11 -4
11 -10z m4697 -23 c0 -8 -6 -14 -13 -14 -7 0 -10 6 -7 14 3 7 8 13 12 13 4 0
8 -6 8 -13z m12 -66 c7 -5 9 -11 5 -14 -5 -3 -15 1 -22 9 -14 16 -5 18 17 5z
m-17 -223 c-8 -8 -9 -4 -5 13 4 13 8 18 11 10 2 -7 -1 -18 -6 -23z m-4741 -1
c-10 -9 -11 -8 -5 6 3 10 9 15 12 12 3 -3 0 -11 -7 -18z m29 -111 c-7 -7 -13
-7 -20 0 -6 6 -3 10 10 10 13 0 16 -4 10 -10z m4740 -156 c0 -5 -4 -10 -10
-10 -5 0 -10 5 -10 10 0 6 5 10 10 10 6 0 10 -4 10 -10z m-4737 -117 c3 -5 -5
-8 -18 -8 -13 0 -21 3 -18 8 2 4 10 7 18 7 8 0 16 -3 18 -7z m4710 -163 c-7
-28 -13 -25 -13 6 0 14 4 23 9 20 5 -3 7 -15 4 -26z m-4680 -77 c-7 -2 -19 -2
-25 0 -7 3 -2 5 12 5 14 0 19 -2 13 -5z m4629 -52 c-4 -10 -7 -11 -10 -3 -2 7
-9 9 -14 6 -6 -4 -8 -3 -5 3 10 16 36 11 29 -6z m-4607 -11 c-3 -5 -11 -10
-16 -10 -6 0 -7 5 -4 10 3 6 11 10 16 10 6 0 7 -4 4 -10z m13 -55 c-3 -3 -9 2
-12 12 -6 14 -5 15 5 6 7 -7 10 -15 7 -18z m32 -144 c0 -6 -4 -12 -8 -15 -5
-3 -9 1 -9 9 0 8 4 15 9 15 4 0 8 -4 8 -9z m4508 -43 c-2 -6 -10 -13 -16 -14
-7 -1 -8 0 -2 3 5 2 8 9 4 14 -3 5 0 9 6 9 7 0 10 -5 8 -12z m-8 -38 c0 -5 -7
-7 -15 -4 -8 4 -15 8 -15 10 0 2 7 4 15 4 8 0 15 -4 15 -10z m-65 -39 c3 -5 2
-12 -3 -15 -5 -3 -9 1 -9 9 0 17 3 19 12 6z m-4365 -19 c0 -4 -10 -13 -22 -21
-23 -14 -23 -14 -4 8 20 22 26 25 26 13z m4351 -69 c0 -5 2 -18 3 -30 2 -14
-2 -19 -11 -16 -16 6 -17 23 -2 23 8 0 8 5 -1 15 -9 10 -9 15 -1 15 6 0 11 -3
12 -7z m-4286 -100 c-1 -10 2 -26 7 -36 8 -16 7 -17 -10 -8 -12 6 -19 19 -17
28 2 10 4 21 4 26 1 4 5 7 10 7 5 0 8 -8 6 -17z m4198 -28 c-3 -9 -8 -14 -10
-11 -3 3 -2 9 2 15 9 16 15 13 8 -4z m40 -10 c-7 -21 -12 -19 -10 4 0 11 5 18
9 15 4 -3 5 -11 1 -19z m-4202 -2 c13 -16 12 -17 -3 -4 -10 7 -18 15 -18 17 0
8 8 3 21 -13z m4169 -34 c0 -5 -4 -9 -8 -9 -5 0 -9 7 -9 15 0 8 4 12 9 9 4 -3
8 -9 8 -15z m-70 -73 c0 -2 -8 -10 -17 -17 -16 -13 -17 -12 -4 4 13 16 21 21
21 13z m-4036 -47 c-3 -5 -10 -7 -15 -3 -5 3 -7 10 -3 15 3 5 10 7 15 3 5 -3
7 -10 3 -15z m4032 -6 c-2 -9 -9 -19 -17 -21 -11 -3 -11 -1 1 7 8 6 11 11 7
11 -5 0 -5 5 -2 10 9 15 14 12 11 -7z m-3976 -53 c-8 -16 -8 -24 3 -35 8 -8
18 -11 22 -7 4 4 5 0 3 -8 -2 -10 3 -14 17 -12 l20 4 -20 -16 c-17 -13 -18
-15 -3 -16 9 0 20 -9 23 -20 3 -11 13 -20 20 -20 8 0 16 -4 19 -9 4 -5 -3 -7
-14 -4 -11 3 -25 14 -31 25 -6 11 -13 17 -16 14 -6 -6 -29 22 -33 39 -1 6 -8
18 -17 27 -11 13 -12 21 -3 37 6 12 13 21 16 21 2 0 0 -9 -6 -20z m27 -15 c0
-8 -4 -12 -9 -9 -5 3 -6 10 -3 15 9 13 12 11 12 -6z m3854 -74 c-7 -5 -11 -13
-7 -19 3 -6 1 -14 -6 -18 -7 -4 -10 -4 -6 1 4 4 0 14 -10 22 -9 8 -12 12 -5 9
6 -4 14 -2 18 4 3 5 12 10 18 10 8 0 7 -3 -2 -9z m-76 -41 c-3 -5 -1 -10 6
-10 7 0 10 -3 6 -6 -9 -9 -28 6 -22 17 4 5 8 9 11 9 3 0 2 -4 -1 -10z m-3691
-51 c-3 -5 -10 -7 -15 -3 -5 3 -7 10 -3 15 3 5 10 7 15 3 5 -3 7 -10 3 -15z
m3611 -79 c3 -5 1 -10 -4 -10 -6 0 -11 5 -11 10 0 6 2 10 4 10 3 0 8 -4 11
-10z m-48 -83 c-28 -36 -42 -43 -50 -24 -4 11 0 13 15 9 20 -5 20 -4 3 24
l-17 29 21 -25 c17 -20 21 -22 21 -7 0 9 5 17 11 17 5 0 7 5 4 10 -4 6 -11 7
-17 4 -7 -4 -8 -2 -4 5 6 9 11 9 22 0 12 -10 11 -16 -9 -42z m-3307 -81 c0 -2
-7 -7 -16 -10 -8 -3 -12 -2 -9 4 6 10 25 14 25 6z m87 -86 c-3 -13 0 -20 10
-20 8 0 11 4 8 10 -3 6 1 7 10 4 14 -6 14 -8 -2 -19 -23 -17 -43 -2 -36 25 3
11 8 20 10 20 3 0 3 -9 0 -20z m2913 -26 c0 -8 -19 -13 -24 -6 -3 5 1 9 9 9 8
0 15 -2 15 -3z m-2670 -145 c0 8 2 12 5 9 3 -3 2 -13 -1 -22 -5 -14 -9 -15
-15 -4 -5 7 -9 18 -9 23 0 6 5 3 10 -5 8 -12 10 -12 10 -1z m2405 -59 c3 -5 1
-10 -4 -10 -6 0 -11 5 -11 10 0 6 2 10 4 10 3 0 8 -4 11 -10z m-2275 -26 c0
-8 -5 -12 -10 -9 -6 4 -8 11 -5 16 9 14 15 11 15 -7z m2160 -28 c0 -3 -4 -8
-10 -11 -5 -3 -10 -1 -10 4 0 6 5 11 10 11 6 0 10 -2 10 -4z m-85 -46 c-3 -5
-14 -10 -23 -9 -14 0 -13 2 3 9 27 11 27 11 20 0z m-62 -15 c-3 -9 -8 -14 -10
-11 -3 3 -2 9 2 15 9 16 15 13 8 -4z m-1639 -51 c3 -8 2 -12 -4 -9 -6 3 -10
10 -10 16 0 14 7 11 14 -7z m-24 -16 c0 -6 -3 -8 -7 -5 -3 4 -13 1 -22 -6 -14
-11 -14 -10 -2 6 15 20 31 22 31 5z m41 -15 c-12 -20 -14 -14 -5 12 4 9 9 14
11 11 3 -2 0 -13 -6 -23z m1372 -8 c-3 -9 -8 -14 -10 -11 -3 3 -2 9 2 15 9 16
15 13 8 -4z m68 -8 c-10 -9 -11 -8 -5 6 3 10 9 15 12 12 3 -3 0 -11 -7 -18z
m-1370 -10 c-10 -9 -11 -8 -5 6 3 10 9 15 12 12 3 -3 0 -11 -7 -18z m1203 -19
c-3 -5 -10 -6 -15 -3 -5 4 -12 0 -15 -9 -3 -8 -12 -12 -20 -9 -12 4 -10 8 8
17 27 14 49 16 42 4z m-104 -18 c0 8 3 11 6 7 3 -3 2 -12 -3 -21 -7 -13 -11
-12 -22 7 -13 20 -13 21 2 8 14 -11 17 -11 17 -1z m-749 -14 c-9 -11 -9 -15 1
-19 7 -3 -3 -3 -22 -2 -19 2 -37 4 -40 5 -3 1 -9 2 -15 0 -5 -1 -4 4 3 12 8 8
15 9 20 3 9 -14 28 -13 44 3 16 16 23 15 9 -2z m134 -6 c-3 -5 -12 -10 -18
-10 -7 0 -6 4 3 10 19 12 23 12 15 0z"/>
<path d="M2315 4957 c4 -32 4 -33 15 -17 13 20 12 27 -4 33 -9 4 -12 -2 -11
-16z"/>
<path d="M2494 4964 c-18 -14 -18 -15 4 -4 18 9 27 8 38 -1 8 -7 14 -7 14 -1
0 5 -7 13 -16 16 -20 8 -17 8 -40 -10z"/>
<path d="M2715 4969 c-4 -6 -5 -12 -2 -15 2 -3 7 2 10 11 7 17 1 20 -8 4z"/>
<path d="M2856 4967 c3 -10 9 -15 12 -12 3 3 0 11 -7 18 -10 9 -11 8 -5 -6z"/>
<path d="M2736 4962 c-3 -5 1 -9 9 -9 8 0 15 4 15 9 0 4 -4 8 -9 8 -6 0 -12
-4 -15 -8z"/>
<path d="M2884 4955 c1 -8 6 -18 11 -22 4 -4 5 -3 2 4 -4 6 -2 13 5 15 8 3 6
6 -4 10 -10 4 -15 2 -14 -7z"/>
<path d="M2940 4914 c0 -8 5 -12 10 -9 6 4 8 11 5 16 -9 14 -15 11 -15 -7z"/>
<path d="M1960 4900 c0 -5 -8 -7 -17 -3 -12 4 -10 -1 7 -16 23 -21 25 -21 31
-4 12 30 10 38 -6 17 -13 -16 -14 -16 -9 -1 3 9 3 17 0 17 -3 0 -6 -4 -6 -10z"/>
<path d="M3103 4897 c-3 -6 -1 -7 6 -3 6 4 18 2 26 -4 8 -7 15 -9 15 -6 0 4 9
2 19 -4 14 -7 22 -7 26 0 4 6 3 10 -2 9 -18 -3 -34 1 -29 9 2 4 -9 8 -25 8
-16 1 -32 -3 -36 -9z"/>
<path d="M3235 4900 c6 -10 4 -12 -8 -7 -14 5 -15 3 -5 -18 8 -18 14 -22 24
-15 8 8 14 7 17 -2 3 -7 4 -3 4 9 -1 15 -5 19 -11 13 -15 -15 -30 -12 -17 4 9
11 9 16 0 22 -8 5 -9 3 -4 -6z"/>
<path d="M3330 4846 c0 -2 6 -9 14 -15 11 -9 16 -9 22 0 4 8 3 9 -4 5 -7 -4
-12 -2 -12 3 0 6 -4 11 -10 11 -5 0 -10 -2 -10 -4z"/>
<path d="M3476 4812 c-2 -4 -1 -14 4 -22 7 -11 9 -9 7 8 -1 24 -3 26 -11 14z"/>
<path d="M1666 4798 c8 -12 -40 -27 -67 -22 -22 4 -22 4 -4 -5 11 -5 18 -10
15 -11 -24 -7 -40 -7 -40 1 0 5 -5 9 -12 9 -9 0 -9 -3 0 -12 17 -17 60 -18 66
-1 3 8 10 12 14 9 5 -3 19 5 31 18 16 17 18 23 7 23 -8 0 -13 -4 -10 -9z"/>
<path d="M1444 4714 c-18 -14 -18 -15 4 -4 12 6 22 13 22 15 0 8 -5 6 -26 -11z"/>
<path d="M3746 4682 c-2 -4 4 -8 14 -8 10 0 16 4 14 8 -3 4 -9 8 -14 8 -5 0
-11 -4 -14 -8z"/>
<path d="M1346 4638 c3 -4 11 -5 19 -1 21 7 19 12 -4 10 -11 0 -18 -5 -15 -9z"/>
<path d="M3910 4559 c0 -5 5 -7 10 -4 6 3 10 8 10 11 0 2 -4 4 -10 4 -5 0 -10
-5 -10 -11z"/>
<path d="M3951 4523 c-1 -6 4 -15 9 -18 6 -4 8 -11 4 -16 -3 -5 -2 -8 3 -7 4
1 18 -3 29 -10 18 -10 24 -9 35 6 7 9 9 14 5 10 -5 -4 -15 -3 -22 2 -6 6 -18
9 -25 8 -9 -2 -13 4 -11 17 2 15 1 17 -6 6 -8 -11 -10 -11 -15 0 -3 9 -6 10
-6 2z m64 -43 c3 -6 -1 -7 -9 -4 -18 7 -21 14 -7 14 6 0 13 -4 16 -10z"/>
<path d="M1084 4477 c5 -15 2 -17 -17 -12 -20 5 -20 5 -4 -6 23 -14 40 0 26
21 -9 12 -10 12 -5 -3z"/>
<path d="M4070 4450 c0 -5 8 -14 18 -19 14 -7 19 -6 19 4 0 7 -7 11 -15 7 -10
-3 -13 -1 -8 6 4 7 2 12 -3 12 -6 0 -11 -4 -11 -10z"/>
<path d="M893 4315 c1 -12 -3 -19 -11 -17 -8 1 -11 -2 -7 -8 5 -8 13 -6 26 6
20 18 26 29 10 20 -5 -4 -12 0 -15 6 -3 7 -4 4 -3 -7z"/>
<path d="M4291 4251 c-12 -7 -12 -13 -3 -24 7 -7 9 -16 6 -19 -3 -3 -1 -9 5
-13 6 -3 11 1 11 10 0 10 5 13 13 9 7 -4 9 -3 4 2 -5 5 -13 10 -18 10 -5 1
-12 2 -15 3 -4 0 -1 8 6 16 14 17 11 19 -9 6z"/>
<path d="M787 4193 c6 -16 8 -16 23 1 9 12 8 15 -8 13 -12 0 -18 -6 -15 -14z"/>
<path d="M762 4174 c-7 -8 -9 -14 -5 -14 4 0 1 -4 -7 -10 -8 -5 -12 -12 -8
-15 4 -4 14 5 24 19 19 29 16 42 -4 20z"/>
<path d="M4330 4166 c0 -2 7 -6 15 -10 8 -3 15 -1 15 4 0 6 -7 10 -15 10 -8 0
-15 -2 -15 -4z"/>
<path d="M4370 4139 c0 -15 18 -19 23 -6 3 8 -1 14 -9 14 -8 0 -14 -4 -14 -8z"/>
<path d="M4455 4079 c-4 -6 -5 -12 -2 -15 2 -3 7 2 10 11 7 17 1 20 -8 4z"/>
<path d="M4420 4066 c0 -2 7 -9 15 -16 13 -11 14 -10 9 4 -5 14 -24 23 -24 12z"/>
<path d="M4466 4039 c2 -4 -3 -9 -11 -11 -13 -2 -12 -5 4 -15 17 -11 19 -10
14 4 -4 10 -2 14 4 10 5 -3 10 0 10 7 0 7 -6 13 -13 13 -7 0 -11 -4 -8 -8z"/>
<path d="M626 4011 c-4 -5 1 -8 9 -7 21 3 31 16 12 16 -9 0 -18 -4 -21 -9z"/>
<path d="M555 3940 c3 -5 8 -10 11 -10 2 0 4 5 4 10 0 6 -5 10 -11 10 -5 0 -7
-4 -4 -10z"/>
<path d="M4570 3878 c14 -16 23 -19 31 -11 8 8 7 13 -2 18 -8 5 -10 4 -5 -3 4
-7 3 -12 -2 -12 -6 0 -12 7 -16 15 -3 8 -10 15 -16 15 -6 0 -2 -10 10 -22z"/>
<path d="M4597 3835 c-8 -19 5 -26 23 -14 11 6 12 9 2 9 -7 0 -10 5 -7 10 3 6
2 10 -3 10 -6 0 -12 -7 -15 -15z"/>
<path d="M474 3793 c2 -10 6 -17 10 -16 15 3 16 11 2 22 -12 10 -14 9 -12 -6z"/>
<path d="M396 3605 c-16 -12 -17 -15 -4 -15 9 0 18 7 22 15 7 18 6 18 -18 0z"/>
<path d="M355 3580 c-3 -5 -1 -10 4 -10 6 0 11 5 11 10 0 6 -2 10 -4 10 -3 0
-8 -4 -11 -10z"/>
<path d="M4767 3499 c7 -7 15 -10 18 -7 3 3 -2 9 -12 12 -14 6 -15 5 -6 -5z"/>
<path d="M4809 3432 c9 -7 10 -12 2 -16 -12 -8 -6 -26 10 -26 14 0 4 44 -12
48 -12 3 -12 2 0 -6z"/>
<path d="M4856 3342 c-2 -4 -1 -14 4 -22 7 -11 9 -9 7 8 -1 24 -3 26 -11 14z"/>
<path d="M262 3314 c-7 -8 -8 -14 -3 -14 10 0 25 19 20 25 -2 1 -10 -3 -17
-11z"/>
<path d="M225 3200 c-3 -5 -1 -10 4 -10 6 0 11 5 11 10 0 6 -2 10 -4 10 -3 0
-8 -4 -11 -10z"/>
<path d="M213 3164 c0 -16 13 -19 21 -5 3 5 0 11 -7 14 -8 3 -14 -1 -14 -9z"/>
<path d="M193 3125 c0 -8 4 -15 9 -15 4 0 8 4 8 9 0 6 -4 12 -8 15 -5 3 -9 -1
-9 -9z"/>
<path d="M170 2960 c0 -5 5 -10 10 -10 6 0 10 5 10 10 0 6 -4 10 -10 10 -5 0
-10 -4 -10 -10z"/>
<path d="M147 2879 c7 -7 15 -10 18 -7 3 3 -2 9 -12 12 -14 6 -15 5 -6 -5z"/>
<path d="M165 2843 c-15 -35 -15 -45 1 -32 8 6 12 14 9 17 -3 3 0 11 6 19 7 8
8 13 1 13 -5 0 -13 -8 -17 -17z"/>
<path d="M160 2790 c-12 -7 -12 -12 -2 -22 6 -6 12 -10 13 -7 0 2 2 12 4 22 4
20 4 19 -15 7z"/>
<path d="M4986 2678 c3 -5 10 -6 15 -3 13 9 11 12 -6 12 -8 0 -12 -4 -9 -9z"/>
<path d="M4958 2623 c7 -3 16 -2 19 1 4 3 -2 6 -13 5 -11 0 -14 -3 -6 -6z"/>
<path d="M4945 2601 c8 -14 44 -20 39 -7 -2 6 -14 12 -24 13 -11 1 -18 -2 -15
-6z"/>
<path d="M153 2538 c-19 -25 -26 -41 -15 -34 6 3 13 2 17 -4 3 -5 1 -10 -4
-10 -6 0 -11 -4 -11 -8 0 -5 6 -9 14 -9 15 0 16 14 2 36 -5 8 -4 16 5 22 7 4
11 11 8 14 -4 3 -11 0 -16 -7z"/>
<path d="M4956 2541 c-4 -5 -2 -12 3 -15 5 -4 12 -2 15 3 4 5 2 12 -3 15 -5 4
-12 2 -15 -3z"/>
<path d="M136 2377 c3 -10 9 -15 12 -12 3 3 0 11 -7 18 -10 9 -11 8 -5 -6z"/>
<path d="M165 2231 c2 -19 18 -17 21 2 1 8 -4 14 -11 14 -7 0 -12 -7 -10 -16z"/>
<path d="M4924 2186 c0 -20 3 -22 18 -13 9 6 16 12 15 12 -1 0 -9 6 -17 12
-13 10 -16 8 -16 -11z"/>
<path d="M4973 2195 c0 -8 4 -12 9 -9 5 3 6 10 3 15 -9 13 -12 11 -12 -6z"/>
<path d="M197 2013 c-3 -5 5 -8 18 -8 13 0 21 3 18 8 -2 4 -10 7 -18 7 -8 0
-16 -3 -18 -7z"/>
<path d="M236 1877 c3 -10 9 -15 12 -12 3 3 0 11 -7 18 -10 9 -11 8 -5 -6z"/>
<path d="M283 1733 c9 -2 15 -9 12 -14 -4 -5 -1 -9 5 -9 6 0 8 -5 3 -12 -15
-24 -12 -37 7 -30 11 4 19 12 20 17 2 18 -32 55 -49 54 -13 -1 -13 -2 2 -6z
m42 -43 c3 -5 -1 -10 -10 -10 -9 0 -13 5 -10 10 3 6 8 10 10 10 2 0 7 -4 10
-10z"/>
<path d="M4768 1623 c7 -3 16 -2 19 1 4 3 -2 6 -13 5 -11 0 -14 -3 -6 -6z"/>
<path d="M4770 1599 c0 -5 -4 -8 -9 -5 -11 7 -8 -21 4 -31 4 -4 5 -2 1 5 -4 7
-1 15 8 18 18 7 22 24 6 24 -5 0 -10 -5 -10 -11z"/>
<path d="M380 1540 c-12 -8 -12 -10 -1 -10 10 0 11 -3 2 -14 -7 -8 -8 -17 -3
-20 6 -3 15 1 21 8 8 10 9 16 1 21 -6 3 -8 11 -5 16 8 11 4 11 -15 -1z"/>
<path d="M4679 1393 c-13 -16 -12 -17 4 -4 16 13 21 21 13 21 -2 0 -10 -8 -17
-17z"/>
<path d="M436 1367 c3 -10 9 -15 12 -12 3 3 0 11 -7 18 -10 9 -11 8 -5 -6z"/>
<path d="M4640 1361 c0 -6 4 -13 10 -16 6 -3 7 1 4 9 -7 18 -14 21 -14 7z"/>
<path d="M4660 1366 c0 -2 7 -7 16 -10 8 -3 12 -2 9 4 -6 10 -25 14 -25 6z"/>
<path d="M4615 1324 c-19 -14 -19 -15 2 -11 26 4 38 13 26 20 -4 3 -17 -1 -28
-9z"/>
<path d="M483 1315 c-8 -9 -9 -16 -3 -20 6 -3 10 -1 10 4 0 6 3 10 8 9 4 -2 8
1 10 7 5 15 -12 16 -25 0z"/>
<path d="M4599 1253 c-12 -16 -12 -17 2 -6 9 7 20 9 24 5 5 -4 5 -1 1 6 -9 16
-11 15 -27 -5z"/>
<path d="M534 1216 c1 -8 5 -18 8 -22 4 -3 5 1 4 10 -1 8 -5 18 -8 22 -4 3 -5
-1 -4 -10z"/>
<path d="M4430 1056 c0 -2 8 -10 18 -17 15 -13 16 -12 3 4 -13 16 -21 21 -21
13z"/>
<path d="M4394 1015 c-18 -15 -18 -15 0 -8 14 5 17 3 11 -7 -5 -9 -4 -11 4 -6
6 4 9 11 6 16 -3 4 1 11 7 13 7 3 8 6 2 6 -5 1 -19 -6 -30 -14z"/>
<path d="M713 1013 c-7 -3 -13 -9 -13 -15 0 -7 5 -6 14 1 11 9 15 9 19 -1 2
-7 7 -10 11 -7 9 9 -17 27 -31 22z"/>
<path d="M4385 960 c-3 -6 1 -7 9 -4 18 7 21 14 7 14 -6 0 -13 -4 -16 -10z"/>
<path d="M755 929 c-4 -6 -5 -12 -2 -15 2 -3 7 2 10 11 7 17 1 20 -8 4z"/>
<path d="M4335 919 c-4 -6 -4 -13 -1 -16 3 -4 6 -1 6 5 0 6 8 13 18 15 15 4
15 5 0 6 -9 0 -20 -4 -23 -10z"/>
<path d="M795 880 c-3 -6 1 -7 9 -4 18 7 21 14 7 14 -6 0 -13 -4 -16 -10z"/>
<path d="M870 842 c0 -7 5 -12 12 -12 9 0 9 -3 0 -12 -7 -7 -12 -17 -12 -22 0
-6 5 -3 11 7 13 21 30 13 22 -11 -7 -19 -4 -17 17 13 8 11 10 17 5 12 -4 -4
-19 3 -32 15 -13 12 -23 16 -23 10z"/>
<path d="M993 715 c0 -10 5 -11 19 -4 10 5 18 11 18 12 0 2 -8 3 -18 4 -10 1
-19 -5 -19 -12z"/>
<path d="M1086 662 c-11 -10 -6 -20 20 -37 15 -9 23 -12 20 -6 -4 6 0 11 10
11 13 0 14 3 5 14 -13 16 -47 27 -55 18z m39 -14 c5 4 5 2 1 -5 -8 -14 -36 -6
-36 9 0 7 5 6 13 -1 8 -6 18 -7 22 -3z"/>
<path d="M4006 652 c-3 -6 -1 -14 5 -17 15 -10 25 3 12 16 -7 7 -13 7 -17 1z"/>
<path d="M4046 638 c3 -5 10 -6 15 -3 13 9 11 12 -6 12 -8 0 -12 -4 -9 -9z"/>
<path d="M1241 537 c-13 -21 -12 -21 5 -5 10 10 16 20 13 22 -3 3 -11 -5 -18
-17z"/>
<path d="M3766 473 c-6 -14 -5 -15 5 -6 7 7 10 15 7 18 -3 3 -9 -2 -12 -12z"/>
<path d="M3710 441 c0 -6 4 -13 10 -16 6 -3 7 1 4 9 -7 18 -14 21 -14 7z"/>
<path d="M3650 399 c0 -5 5 -7 10 -4 6 3 10 8 10 11 0 2 -4 4 -10 4 -5 0 -10
-5 -10 -11z"/>
<path d="M1490 380 c0 -5 5 -10 11 -10 5 0 7 5 4 10 -3 6 -8 10 -11 10 -2 0
-4 -4 -4 -10z"/>
<path d="M1530 368 c-10 -21 -10 -21 3 -5 13 15 17 16 29 4 7 -8 24 -19 36
-26 22 -12 23 -11 12 8 -6 12 -14 20 -18 19 -4 -1 -17 3 -29 10 -19 11 -24 9
-33 -10z"/>
<path d="M3448 333 c-9 -11 -7 -17 5 -29 9 -8 12 -9 7 -2 -16 20 -11 31 8 17
9 -7 14 -9 10 -5 -4 5 -3 14 2 21 7 8 5 12 -5 12 -9 0 -20 -7 -27 -14z"/>
<path d="M3400 334 c0 -3 7 -12 15 -20 13 -13 15 -13 15 -1 0 8 -7 17 -15 21
-8 3 -15 3 -15 0z"/>
<path d="M3307 275 c-4 -8 -3 -16 1 -19 4 -3 9 4 9 15 2 23 -3 25 -10 4z"/>
<path d="M3370 282 c0 -5 7 -9 15 -9 8 0 12 4 9 9 -3 4 -9 8 -15 8 -5 0 -9 -4
-9 -8z"/>
<path d="M1766 262 c-3 -5 1 -9 9 -9 8 0 12 4 9 9 -3 4 -7 8 -9 8 -2 0 -6 -4
-9 -8z"/>
<path d="M3330 259 c0 -5 5 -7 10 -4 6 3 10 8 10 11 0 2 -4 4 -10 4 -5 0 -10
-5 -10 -11z"/>
<path d="M3160 220 c-12 -7 -10 -9 7 -7 12 0 19 5 17 9 -6 10 -6 10 -24 -2z"/>
<path d="M3030 190 c0 -5 5 -10 11 -10 5 0 7 5 4 10 -3 6 -8 10 -11 10 -2 0
-4 -4 -4 -10z"/>
<path d="M2913 183 c4 -3 1 -13 -6 -22 -11 -14 -10 -14 5 -2 16 12 16 31 1 31
-4 0 -3 -3 0 -7z"/>
<path d="M2274 165 c3 -23 12 -26 13 -5 1 11 -2 20 -7 20 -4 0 -7 -7 -6 -15z"/>
<path d="M2326 167 c3 -10 9 -15 12 -12 3 3 0 11 -7 18 -10 9 -11 8 -5 -6z"/>
<path d="M2706 171 c3 -3 9 -6 12 -6 4 -1 18 -7 30 -14 22 -12 23 -11 14 5 -6
10 -22 19 -36 20 -15 0 -24 -2 -20 -5z"/>
<path d="M2396 162 c-3 -4 4 -9 15 -9 23 -2 25 3 4 10 -8 4 -16 3 -19 -1z"/>
<path d="M2715 140 c3 -5 8 -10 11 -10 2 0 4 5 4 10 0 6 -5 10 -11 10 -5 0 -7
-4 -4 -10z"/>
<path d="M2800 140 c-9 -6 -10 -10 -3 -10 6 0 15 5 18 10 8 12 4 12 -15 0z"/>
</g>
</svg>
